# xmcd
#
# Track frame offsets: 
#        150
#        13877
#        34269
#        52097
#        69552
#        81578
#        93029
#        105619
#        133435
#        150377
#        164071
#        180660
#        192758
#        204810
#        216537
#        232755
#        245483
#        258158
#        273631
#        288255
#        303604
#        320864
#
# Disc length: 4510 seconds
#
# Revision: 0
# Processed by: cddbd v1.5.2PL0 Copyright (c) Steve Scherf et al.
# Submitted via: ExactAudioCopy v0.99pb3
#
DISCID=4a119c16
DTITLE=Etta James - Losers Weepers
DYEAR=2011
DGENRE=Soul
TTITLE0=Take Out Some Insurance
TTITLE1=I Got It Bad and That Ain't Good
TTITLE2=I Think It's You
TTITLE3=Someone
TTITLE4=Losers Weepers
TTITLE5=Weepers
TTITLE6=You're The Fool
TTITLE7=Hold Back My Tears
TTITLE8=For All We Know
TTITLE9=Look At The Rain
TTITLE10=Ease Away A Little Bit At A Time
TTITLE11=The Love Of My Man
TTITLE12=Tighten Up Your Own Thing
TTITLE13=Quick Reaction and Satisfaction
TTITLE14=Nothing From Nothing Leaves Nothing
TTITLE15=The Sound Of Love
TTITLE16=The Man I Love
TTITLE17=I Found A Love
TTITLE18=W.O.M.A.N. (Woman)
TTITLE19=Tell It Like It Is
TTITLE20=Never My Love
TTITLE21=I Never Meant To Love Him
EXTD=
EXTT0=
EXTT1=
EXTT2=
EXTT3=
EXTT4=
EXTT5=
EXTT6=
EXTT7=
EXTT8=
EXTT9=
EXTT10=
EXTT11=
EXTT12=
EXTT13=
EXTT14=
EXTT15=
EXTT16=
EXTT17=
EXTT18=
EXTT19=
EXTT20=
EXTT21=
PLAYORDER=
